<svg width="24" height="24" viewBox="0 0 24 24" fill="none" xmlns="http://www.w3.org/2000/svg">
<mask id="mask0_45_2093" style="mask-type:alpha" maskUnits="userSpaceOnUse" x="0" y="0" width="24" height="24">
<rect width="24" height="24" fill="#D9D9D9"/>
</mask>
<g mask="url(#mask0_45_2093)">
<path d="M10.5827 16.2539L17.3058 9.53087L16.2519 8.47705L10.5827 14.1463L7.7327 11.2963L6.67888 12.3501L10.5827 16.2539ZM12.0036 21.5001C10.6897 21.5001 9.45464 21.2507 8.2985 20.7521C7.14235 20.2534 6.13667 19.5767 5.28145 18.7218C4.42622 17.867 3.74916 16.8617 3.25028 15.7061C2.75139 14.5505 2.50195 13.3157 2.50195 12.0018C2.50195 10.6878 2.75129 9.45281 3.24995 8.29667C3.74862 7.14052 4.42537 6.13484 5.2802 5.27962C6.13505 4.42439 7.1403 3.74733 8.29593 3.24845C9.45155 2.74956 10.6863 2.50012 12.0003 2.50012C13.3142 2.50012 14.5492 2.74946 15.7054 3.24812C16.8615 3.74679 17.8672 4.42354 18.7224 5.27837C19.5776 6.13322 20.2547 7.13846 20.7536 8.2941C21.2525 9.44972 21.5019 10.6845 21.5019 11.9984C21.5019 13.3124 21.2526 14.5474 20.7539 15.7035C20.2552 16.8597 19.5785 17.8654 18.7237 18.7206C17.8688 19.5758 16.8636 20.2529 15.7079 20.7517C14.5523 21.2506 13.3175 21.5001 12.0036 21.5001Z" fill="#99FA4C"/>
</g>
</svg>
