<svg width="141" height="36" viewBox="0 0 141 36" fill="none" xmlns="http://www.w3.org/2000/svg">
<g filter="url(#filter0_d_87_2428)">
<circle cx="17" cy="17" r="17" fill="#FCD97E"/>
</g>
<path d="M21.648 19.4C21.648 20.42 21.27 21.272 20.514 21.956C19.758 22.64 18.75 23.024 17.49 23.108V24.818C17.49 25.07 17.394 25.196 17.202 25.196H16.734C16.542 25.196 16.446 25.07 16.446 24.818V23.108C15.282 23.012 14.346 22.694 13.638 22.154C12.93 21.602 12.576 21.032 12.576 20.444C12.576 20.024 12.69 19.7 12.918 19.472C13.146 19.244 13.422 19.13 13.746 19.13C14.166 19.13 14.532 19.292 14.844 19.616C15.156 19.928 15.39 20.276 15.546 20.66C15.714 21.032 15.936 21.38 16.212 21.704C16.5 22.016 16.83 22.172 17.202 22.172C17.67 22.172 18.054 22.004 18.354 21.668C18.654 21.332 18.804 20.882 18.804 20.318C18.804 19.91 18.69 19.55 18.462 19.238C18.246 18.926 17.958 18.674 17.598 18.482C17.25 18.278 16.86 18.086 16.428 17.906C15.996 17.726 15.564 17.534 15.132 17.33C14.7 17.114 14.304 16.868 13.944 16.592C13.596 16.304 13.308 15.932 13.08 15.476C12.864 15.008 12.756 14.468 12.756 13.856C12.756 12.872 13.11 12.05 13.818 11.39C14.526 10.73 15.444 10.358 16.572 10.274V9.212C16.572 8.972 16.674 8.852 16.878 8.852H17.328C17.532 8.852 17.634 8.972 17.634 9.212V10.274C18.75 10.37 19.644 10.664 20.316 11.156C20.988 11.648 21.324 12.194 21.324 12.794C21.324 13.19 21.216 13.508 21 13.748C20.784 13.976 20.484 14.09 20.1 14.09C19.728 14.09 19.41 13.934 19.146 13.622C18.894 13.31 18.708 12.974 18.588 12.614C18.48 12.242 18.3 11.9 18.048 11.588C17.796 11.276 17.484 11.12 17.112 11.12C16.668 11.12 16.314 11.276 16.05 11.588C15.798 11.9 15.672 12.314 15.672 12.83C15.672 13.31 15.78 13.724 15.996 14.072C16.224 14.42 16.512 14.696 16.86 14.9C17.208 15.092 17.592 15.272 18.012 15.44C18.444 15.596 18.87 15.77 19.29 15.962C19.722 16.154 20.112 16.382 20.46 16.646C20.808 16.91 21.09 17.276 21.306 17.744C21.534 18.212 21.648 18.764 21.648 19.4Z" fill="black" fill-opacity="0.6"/>
<path d="M132.667 24.7748V14.8158H135.802V24.7748H132.667ZM135.802 19.3035L134.491 18.2789C134.75 17.1177 135.187 16.216 135.802 15.574C136.417 14.9319 137.271 14.6108 138.364 14.6108C138.842 14.6108 139.259 14.686 139.614 14.8363C139.983 14.9729 140.304 15.1914 140.577 15.492L138.712 17.8485C138.575 17.6983 138.405 17.5822 138.2 17.5002C137.995 17.4182 137.763 17.3772 137.503 17.3772C136.984 17.3772 136.567 17.5412 136.253 17.869C135.953 18.1832 135.802 18.6614 135.802 19.3035Z" fill="#131315"/>
<path d="M126.769 25.0002C125.69 25.0002 124.727 24.7816 123.88 24.3444C123.046 23.8936 122.391 23.272 121.913 22.4797C121.434 21.6873 121.195 20.7925 121.195 19.7952C121.195 18.798 121.428 17.91 121.892 17.1313C122.37 16.339 123.012 15.7174 123.818 15.2666C124.624 14.8157 125.533 14.5903 126.544 14.5903C127.527 14.5903 128.395 14.8021 129.146 15.2256C129.898 15.6491 130.485 16.2365 130.908 16.9879C131.346 17.7392 131.564 18.5999 131.564 19.5698C131.564 19.7474 131.551 19.9387 131.523 20.1436C131.51 20.3349 131.475 20.5603 131.421 20.8198L122.835 20.8403V18.6887L130.089 18.6682L128.736 19.5698C128.723 18.9961 128.634 18.5248 128.47 18.1559C128.306 17.7734 128.06 17.4865 127.732 17.2952C127.418 17.0903 127.029 16.9879 126.564 16.9879C126.072 16.9879 125.642 17.104 125.273 17.3362C124.918 17.5548 124.638 17.869 124.433 18.2789C124.242 18.6887 124.146 19.1873 124.146 19.7748C124.146 20.3622 124.249 20.8677 124.454 21.2912C124.672 21.701 124.973 22.022 125.355 22.2543C125.751 22.4728 126.216 22.5821 126.749 22.5821C127.24 22.5821 127.684 22.5002 128.081 22.3362C128.477 22.1586 128.825 21.8991 129.126 21.5575L130.847 23.2789C130.355 23.8526 129.761 24.283 129.064 24.5698C128.367 24.8567 127.602 25.0002 126.769 25.0002Z" fill="#131315"/>
<path d="M114.67 24.7744L110.448 14.8154H113.829L116.698 23.1146H115.223L118.092 14.8154H121.411L117.19 24.754L114.67 24.7744Z" fill="#131315"/>
<path d="M103.917 24.9797C103.002 24.9797 102.182 24.7543 101.458 24.3035C100.748 23.8526 100.181 23.2379 99.7573 22.4592C99.3475 21.6805 99.1426 20.7925 99.1426 19.7953C99.1426 18.798 99.3475 17.91 99.7573 17.1313C100.181 16.3526 100.748 15.7379 101.458 15.2871C102.182 14.8362 103.002 14.6108 103.917 14.6108C104.587 14.6108 105.188 14.7406 105.72 15.0002C106.267 15.2597 106.711 15.6218 107.052 16.0862C107.394 16.5371 107.585 17.0562 107.626 17.6436V21.9469C107.585 22.5343 107.394 23.0603 107.052 23.5248C106.725 23.9756 106.287 24.3308 105.741 24.5903C105.194 24.8499 104.587 24.9797 103.917 24.9797ZM104.552 22.1518C105.222 22.1518 105.761 21.9332 106.171 21.4961C106.581 21.0453 106.786 20.4783 106.786 19.7953C106.786 19.3308 106.69 18.9209 106.499 18.5658C106.322 18.2106 106.062 17.9373 105.72 17.7461C105.393 17.5412 105.01 17.4387 104.573 17.4387C104.136 17.4387 103.746 17.5412 103.405 17.7461C103.077 17.9373 102.811 18.2106 102.606 18.5658C102.414 18.9209 102.319 19.3308 102.319 19.7953C102.319 20.2461 102.414 20.6491 102.606 21.0043C102.797 21.3595 103.063 21.6395 103.405 21.8444C103.746 22.0494 104.129 22.1518 104.552 22.1518ZM106.663 24.7748V22.0903L107.134 19.6723L106.663 17.2543V14.8158H109.737V24.7748H106.663Z" fill="#131315"/>
<path d="M92.9108 25.0001C91.7223 25.0001 90.6977 24.8088 89.837 24.4263C88.99 24.0301 88.2114 23.4359 87.501 22.6435L89.5911 20.5738C90.0556 21.1066 90.5679 21.5233 91.128 21.8238C91.7018 22.1107 92.3644 22.2542 93.1157 22.2542C93.7988 22.2542 94.3247 22.1312 94.6936 21.8853C95.0761 21.6394 95.2674 21.2979 95.2674 20.8607C95.2674 20.4645 95.1444 20.1435 94.8985 19.8976C94.6526 19.6517 94.3247 19.44 93.9149 19.2624C93.5187 19.0848 93.0747 18.914 92.5829 18.7501C92.1048 18.5861 91.6267 18.4017 91.1485 18.1968C90.6704 17.9782 90.2264 17.7118 89.8166 17.3976C89.4204 17.0697 89.0993 16.6667 88.8534 16.1886C88.6075 15.6968 88.4846 15.082 88.4846 14.3443C88.4846 13.4563 88.6963 12.6913 89.1198 12.0492C89.557 11.4072 90.1581 10.9222 90.9231 10.5943C91.6881 10.2528 92.5693 10.082 93.5665 10.082C94.5775 10.082 95.4996 10.2596 96.3329 10.6148C97.1799 10.97 97.8767 11.455 98.4231 12.0697L96.3329 14.1394C95.8958 13.6886 95.4518 13.3539 95.001 13.1353C94.5638 12.9167 94.0652 12.8074 93.5051 12.8074C92.945 12.8074 92.501 12.9167 92.1731 13.1353C91.8452 13.3402 91.6813 13.6408 91.6813 14.0369C91.6813 14.4058 91.8043 14.7063 92.0502 14.9386C92.2961 15.1572 92.6171 15.3484 93.0133 15.5124C93.4231 15.6763 93.8671 15.8402 94.3452 16.0042C94.837 16.1681 95.322 16.3594 95.8002 16.5779C96.2783 16.7965 96.7155 17.0766 97.1116 17.4181C97.5215 17.746 97.8493 18.1695 98.0952 18.6886C98.3411 19.1941 98.4641 19.8225 98.4641 20.5738C98.4641 21.9536 97.9723 23.0397 96.9887 23.832C96.0051 24.6107 94.6458 25.0001 92.9108 25.0001Z" fill="#131315"/>
<path d="M83.5408 24.7748V19.0985C83.5408 18.5794 83.3768 18.1628 83.049 17.8485C82.7347 17.5207 82.3317 17.3567 81.8399 17.3567C81.4984 17.3567 81.1979 17.4319 80.9383 17.5822C80.6787 17.7188 80.4738 17.9237 80.3235 18.1969C80.1733 18.4565 80.0981 18.757 80.0981 19.0985L78.8891 18.5043C78.8891 17.7256 79.0599 17.0425 79.4014 16.4551C79.7429 15.8677 80.2143 15.4169 80.8154 15.1026C81.4301 14.7748 82.12 14.6108 82.885 14.6108C83.6227 14.6108 84.2716 14.7884 84.8317 15.1436C85.4055 15.4852 85.8563 15.9428 86.1842 16.5166C86.5121 17.0903 86.676 17.7188 86.676 18.4018V24.7748H83.5408ZM76.9629 24.7748V14.8158H80.0981V24.7748H76.9629Z" fill="#131315"/>
<path d="M72.0302 24.7746V14.8156H75.1654V24.7746H72.0302ZM73.608 13.4426C73.1162 13.4426 72.7064 13.2787 72.3785 12.9508C72.0643 12.6093 71.9072 12.1995 71.9072 11.7213C71.9072 11.2295 72.0643 10.8197 72.3785 10.4918C72.7064 10.1639 73.1162 10 73.608 10C74.0998 10 74.5029 10.1639 74.8171 10.4918C75.1313 10.8197 75.2884 11.2295 75.2884 11.7213C75.2884 12.1995 75.1313 12.6093 74.8171 12.9508C74.5029 13.2787 74.0998 13.4426 73.608 13.4426Z" fill="#131315"/>
<path d="M65.4284 25.0002C64.4038 25.0002 63.4748 24.7748 62.6415 24.3239C61.8218 23.8595 61.1729 23.231 60.6948 22.4387C60.2166 21.6463 59.9775 20.7584 59.9775 19.7748C59.9775 18.7912 60.2166 17.91 60.6948 17.1313C61.1729 16.3526 61.8218 15.7379 62.6415 15.2871C63.4611 14.8226 64.3901 14.5903 65.4284 14.5903C66.4666 14.5903 67.3956 14.8157 68.2152 15.2666C69.0349 15.7174 69.6838 16.339 70.162 17.1313C70.6401 17.91 70.8792 18.7912 70.8792 19.7748C70.8792 20.7584 70.6401 21.6463 70.162 22.4387C69.6838 23.231 69.0349 23.8595 68.2152 24.3239C67.3956 24.7748 66.4666 25.0002 65.4284 25.0002ZM65.4284 22.1518C65.8792 22.1518 66.2754 22.0562 66.6169 21.8649C66.9584 21.66 67.218 21.3799 67.3956 21.0248C67.5868 20.6559 67.6825 20.2392 67.6825 19.7748C67.6825 19.3103 67.5868 18.9073 67.3956 18.5657C67.2043 18.2105 66.9379 17.9373 66.5964 17.7461C66.2685 17.5412 65.8792 17.4387 65.4284 17.4387C64.9912 17.4387 64.6019 17.5412 64.2603 17.7461C63.9188 17.9373 63.6524 18.2105 63.4611 18.5657C63.2699 18.9209 63.1743 19.3308 63.1743 19.7952C63.1743 20.2461 63.2699 20.6559 63.4611 21.0248C63.6524 21.3799 63.9188 21.66 64.2603 21.8649C64.6019 22.0562 64.9912 22.1518 65.4284 22.1518Z" fill="#131315"/>
<path d="M54.3066 25.0001C53.2273 25.0001 52.2232 24.8156 51.2943 24.4468C50.379 24.0643 49.573 23.5315 48.8762 22.8484C48.1932 22.1654 47.6604 21.373 47.2779 20.4714C46.8954 19.5561 46.7041 18.5725 46.7041 17.5206C46.7041 16.4686 46.8954 15.4919 47.2779 14.5902C47.6604 13.6749 48.1932 12.8826 48.8762 12.2132C49.5593 11.5438 50.3585 11.0247 51.2738 10.6558C52.2027 10.2733 53.2068 10.082 54.2861 10.082C55.4336 10.082 56.4514 10.2665 57.3393 10.6353C58.241 11.0042 59.0265 11.5096 59.6959 12.1517L57.5443 14.3238C57.1618 13.914 56.6973 13.593 56.1508 13.3607C55.618 13.1285 54.9965 13.0124 54.2861 13.0124C53.6577 13.0124 53.0771 13.1216 52.5443 13.3402C52.0251 13.5451 51.5743 13.8457 51.1918 14.2419C50.823 14.638 50.5292 15.1162 50.3107 15.6763C50.1057 16.2364 50.0033 16.8512 50.0033 17.5206C50.0033 18.2036 50.1057 18.8252 50.3107 19.3853C50.5292 19.9454 50.823 20.4236 51.1918 20.8197C51.5743 21.2159 52.0251 21.5233 52.5443 21.7419C53.0771 21.9604 53.6577 22.0697 54.2861 22.0697C55.0238 22.0697 55.6659 21.9536 56.2123 21.7214C56.7587 21.4891 57.2301 21.1681 57.6262 20.7583L59.7984 22.9304C59.1016 23.5725 58.3025 24.0779 57.4008 24.4468C56.5128 24.8156 55.4814 25.0001 54.3066 25.0001Z" fill="#131315"/>
<defs>
<filter id="filter0_d_87_2428" x="0" y="0" width="36" height="36" filterUnits="userSpaceOnUse" color-interpolation-filters="sRGB">
<feFlood flood-opacity="0" result="BackgroundImageFix"/>
<feColorMatrix in="SourceAlpha" type="matrix" values="0 0 0 0 0 0 0 0 0 0 0 0 0 0 0 0 0 0 127 0" result="hardAlpha"/>
<feOffset dx="2" dy="2"/>
<feComposite in2="hardAlpha" operator="out"/>
<feColorMatrix type="matrix" values="0 0 0 0 0.984314 0 0 0 0 0.741176 0 0 0 0 0.109804 0 0 0 1 0"/>
<feBlend mode="normal" in2="BackgroundImageFix" result="effect1_dropShadow_87_2428"/>
<feBlend mode="normal" in="SourceGraphic" in2="effect1_dropShadow_87_2428" result="shape"/>
</filter>
</defs>
</svg>
