<svg width="82" height="91" viewBox="0 0 82 91" fill="none" xmlns="http://www.w3.org/2000/svg">
<path d="M30.2719 60.1159L29.3643 61.3968L30.8455 60.8767C31.9546 60.4873 33.2626 59.6307 34.6819 58.4618C36.11 57.2857 37.6845 55.7648 39.3285 54.0089C42.6169 50.4966 46.2065 46.0192 49.4891 41.4185C52.7712 36.8185 55.7556 32.0822 57.8289 28.0504C58.8651 26.0354 59.6797 24.1847 60.189 22.6077C60.6914 21.0517 60.9229 19.6853 60.7077 18.6778L60.4694 17.5618L59.8105 18.4935C54.5894 25.8766 49.3488 33.2512 43.9415 40.8603C39.523 47.078 34.9933 53.4523 30.2719 60.1159Z" fill="#131315" stroke="#131315"/>
<path d="M40.346 77.3697L39.6602 77.9681L40.5332 78.2259C42.3535 78.7635 45.549 78.9995 49.3106 79.0253C53.0924 79.0512 57.506 78.864 61.7994 78.5299C66.0923 78.1959 70.2747 77.7141 73.5934 77.1489C75.2519 76.8664 76.7035 76.5616 77.8489 76.2414C78.9681 75.9285 79.8737 75.581 80.3703 75.1784L80.9246 74.7288L80.3128 74.3614C79.4702 73.8553 78.3007 73.4615 76.9209 73.1585C75.5341 72.854 73.903 72.6346 72.1162 72.4932C68.5425 72.2103 64.3149 72.2373 60.112 72.5344C55.9094 72.8315 51.717 73.3999 48.2146 74.205C46.4636 74.6075 44.8767 75.0711 43.5435 75.5933C42.2168 76.113 41.1109 76.7023 40.346 77.3697Z" fill="#131315" stroke="#131315"/>
<path d="M16.0098 43.9102L16.1332 44.1996L16.4476 44.2136C17.0879 44.2419 17.7719 44.2479 18.4449 44.2537L18.9408 44.258L18.9492 43.7623C19.0911 35.4315 19.2075 27.0909 19.3257 18.6103C19.3991 13.3505 19.4732 8.03687 19.5546 2.6384L19.5701 1.60987L18.7518 2.23307C18.0099 2.79802 17.3857 3.75818 16.8544 4.94979C16.3181 6.1525 15.8535 7.644 15.4586 9.33019C14.6685 12.7037 14.1458 16.9092 13.9046 21.2594C13.6633 25.6114 13.7029 30.1239 14.0433 34.1151C14.3825 38.0936 15.0241 41.5992 16.0098 43.9102Z" fill="#131315" stroke="#131315"/>
</svg>
