<svg width="64" height="64" viewBox="0 0 64 64" fill="none" xmlns="http://www.w3.org/2000/svg">
<path d="M32 64C49.6733 64 64 49.6733 64 32C64 14.3267 49.6733 0 32 0C14.3267 0 0 14.3267 0 32C0 49.6733 14.3267 64 32 64Z" fill="#99FA4C"/>
<path d="M17.2659 36.1301H21.7984V44.062H17.2659C16.9654 44.062 16.6772 43.9426 16.4647 43.7301C16.2522 43.5176 16.1328 43.2294 16.1328 42.9289V37.2632C16.1328 36.9627 16.2522 36.6745 16.4647 36.462C16.6772 36.2495 16.9654 36.1301 17.2659 36.1301ZM43.8944 22.5326C43.3064 22.533 42.7258 22.6641 42.1947 22.9164C42.1561 22.0658 41.8448 21.2502 41.3069 20.5903C40.7689 19.9303 40.0328 19.461 39.2074 19.2517C38.382 19.0425 37.5112 19.1045 36.7238 19.4284C35.9364 19.7524 35.2741 20.3212 34.835 21.0507C34.3959 21.7802 34.2032 22.6317 34.2854 23.4792C34.3677 24.3267 34.7205 25.1252 35.2917 25.7566C35.8629 26.3881 36.6222 26.8189 37.4572 26.9854C38.2923 27.1519 39.1587 27.0453 39.9284 26.6813C39.9642 27.4569 40.2269 28.2049 40.6838 28.8326C41.1408 29.4603 41.7719 29.9401 42.499 30.2125C43.2261 30.4848 44.0172 30.5378 44.7741 30.3647C45.531 30.1917 46.2204 29.8003 46.7569 29.239C47.2935 28.6778 47.6534 27.9714 47.7922 27.2075C47.931 26.4436 47.8425 25.6557 47.5377 24.9416C47.2329 24.2275 46.7252 23.6186 46.0776 23.1904C45.4299 22.7621 44.6708 22.5334 43.8944 22.5326Z" fill="white"/>
<path d="M47.6241 34.5805C47.2025 34.256 46.7117 34.0332 46.1899 33.9293C45.6681 33.8254 45.1294 33.8432 44.6157 33.9813L38.6894 35.3439C38.8273 34.7615 38.8315 34.1554 38.7019 33.5711C38.5722 32.9867 38.3119 32.4394 37.9406 31.9699C37.5693 31.5005 37.0965 31.1212 36.5578 30.8605C36.019 30.5997 35.4282 30.4643 34.8297 30.4644H27.7392C27.1437 30.4629 26.5539 30.5794 26.0037 30.8072C25.4535 31.035 24.954 31.3696 24.5338 31.7916L21.3299 34.9969H17.2663C16.6652 34.9969 16.0888 35.2357 15.6638 35.6607C15.2388 36.0857 15 36.6621 15 37.2631V42.9288C15 43.5298 15.2388 44.1062 15.6638 44.5312C16.0888 44.9563 16.6652 45.195 17.2663 45.195H31.9969C32.0895 45.1951 32.1818 45.1836 32.2717 45.161L41.3367 42.8948C41.3945 42.881 41.4509 42.8621 41.5052 42.8381L47.0108 40.4954L47.0731 40.4671C47.6022 40.2027 48.0554 39.8079 48.3898 39.32C48.7242 38.8321 48.9288 38.2671 48.9845 37.6782C49.0402 37.0893 48.9451 36.4959 48.708 35.954C48.471 35.412 48.1 34.9394 47.6298 34.5805H47.6241ZM17.2663 37.2631H20.6656V42.9288H17.2663V37.2631ZM46.0802 38.426L40.6979 40.7178L31.8552 42.9288H22.9319V36.5988L26.1372 33.3949C26.3469 33.1836 26.5965 33.016 26.8715 32.902C27.1465 32.7879 27.4414 32.7297 27.7392 32.7306H34.8297C35.2805 32.7306 35.7128 32.9097 36.0316 33.2285C36.3503 33.5472 36.5294 33.9795 36.5294 34.4303C36.5294 34.8811 36.3503 35.3134 36.0316 35.6322C35.7128 35.9509 35.2805 36.13 34.8297 36.13H30.8638C30.5632 36.13 30.275 36.2494 30.0625 36.4619C29.85 36.6744 29.7306 36.9626 29.7306 37.2631C29.7306 37.5637 29.85 37.8519 30.0625 38.0644C30.275 38.2769 30.5632 38.3963 30.8638 38.3963H35.3963C35.4816 38.396 35.5666 38.3865 35.6498 38.3679L45.1397 36.1853L45.1836 36.1739C45.4733 36.0935 45.7825 36.1231 46.0518 36.2569C46.321 36.3907 46.5312 36.6194 46.6419 36.8989C46.7527 37.1784 46.7561 37.489 46.6517 37.771C46.5472 38.0529 46.3421 38.2862 46.076 38.426H46.0802ZM38.2291 28.1981C38.509 28.1984 38.7885 28.1757 39.0648 28.1301C39.3754 29.053 39.9439 29.8676 40.7029 30.4776C41.4619 31.0876 42.3796 31.4676 43.3477 31.5726C44.3158 31.6775 45.2937 31.5031 46.1658 31.0699C47.0378 30.6367 47.7676 29.9628 48.2689 29.128C48.7701 28.2932 49.0219 27.3323 48.9943 26.3589C48.9668 25.3856 48.6611 24.4405 48.1134 23.6353C47.5658 22.8302 46.799 22.1987 45.9038 21.8155C45.0086 21.4323 44.0224 21.3135 43.0619 21.473C42.7627 20.5839 42.224 19.7945 41.5052 19.1917C40.7863 18.589 39.9151 18.1962 38.9874 18.0567C38.0597 17.9172 37.1114 18.0363 36.2471 18.4009C35.3827 18.7656 34.6357 19.3616 34.0882 20.1234C33.5408 20.8853 33.2141 21.7833 33.1441 22.7189C33.0742 23.6544 33.2637 24.5911 33.6918 25.4258C34.1198 26.2606 34.7699 26.9611 35.5705 27.4502C36.371 27.9394 37.2909 28.1981 38.2291 28.1981ZM46.7275 26.4984C46.7275 27.0587 46.5614 27.6064 46.2501 28.0723C45.9388 28.5381 45.4964 28.9012 44.9788 29.1156C44.4611 29.33 43.8916 29.3861 43.342 29.2768C42.7925 29.1675 42.2878 28.8977 41.8916 28.5015C41.4954 28.1054 41.2256 27.6006 41.1163 27.0511C41.007 26.5016 41.0631 25.932 41.2775 25.4144C41.4919 24.8967 41.855 24.4543 42.3209 24.143C42.7867 23.8318 43.3344 23.6656 43.8947 23.6656C44.646 23.6656 45.3666 23.9641 45.8978 24.4953C46.4291 25.0266 46.7275 25.7471 46.7275 26.4984ZM38.2291 20.2663C38.8471 20.2666 39.448 20.4689 39.9403 20.8426C40.4325 21.2162 40.7891 21.7405 40.9557 22.3356C40.3753 22.744 39.8866 23.2689 39.5207 23.877C39.1549 24.485 38.92 25.1627 38.831 25.8667C38.6332 25.9094 38.4315 25.9313 38.2291 25.9319C37.4778 25.9319 36.7572 25.6334 36.226 25.1022C35.6947 24.5709 35.3963 23.8504 35.3963 23.0991C35.3963 22.3478 35.6947 21.6272 36.226 21.096C36.7572 20.5647 37.4778 20.2663 38.2291 20.2663Z" fill="black"/>
</svg>
