<svg width="64" height="64" viewBox="0 0 64 64" fill="none" xmlns="http://www.w3.org/2000/svg">
<path d="M32 64C49.6733 64 64 49.6733 64 32C64 14.3267 49.6733 0 32 0C14.3267 0 0 14.3267 0 32C0 49.6733 14.3267 64 32 64Z" fill="#99FA4C"/>
<path d="M47.6932 22.923V30.7692H37.2317C37.2317 32.1564 36.6806 33.4869 35.6996 34.4679C34.7186 35.4488 33.3882 35.9999 32.0009 35.9999C30.6136 35.9999 29.2831 35.4488 28.3022 34.4679C27.3212 33.4869 26.7701 32.1564 26.7701 30.7692H16.3086V22.923C16.3086 22.2294 16.5841 21.5641 17.0746 21.0736C17.5651 20.5832 18.2303 20.3076 18.924 20.3076H45.0778C45.7715 20.3076 46.4367 20.5832 46.9272 21.0736C47.4177 21.5641 47.6932 22.2294 47.6932 22.923Z" fill="white"/>
<path d="M45.0769 19H18.9231C17.8826 19 16.8848 19.4133 16.149 20.149C15.4133 20.8848 15 21.8826 15 22.9231V41.2308C15 42.2712 15.4133 43.2691 16.149 44.0048C16.8848 44.7405 17.8826 45.1538 18.9231 45.1538H45.0769C46.1174 45.1538 47.1152 44.7405 47.851 44.0048C48.5867 43.2691 49 42.2712 49 41.2308V22.9231C49 21.8826 48.5867 20.8848 47.851 20.149C47.1152 19.4133 46.1174 19 45.0769 19ZM17.6154 26.8462H46.3846V29.4615H37.2308C36.8839 29.4615 36.5513 29.5993 36.3061 29.8446C36.0608 30.0898 35.9231 30.4224 35.9231 30.7692C35.9231 31.8097 35.5098 32.8075 34.774 33.5433C34.0383 34.279 33.0405 34.6923 32 34.6923C30.9595 34.6923 29.9617 34.279 29.226 33.5433C28.4902 32.8075 28.0769 31.8097 28.0769 30.7692C28.0769 30.4224 27.9391 30.0898 27.6939 29.8446C27.4487 29.5993 27.1161 29.4615 26.7692 29.4615H17.6154V26.8462ZM18.9231 21.6154H45.0769C45.4237 21.6154 45.7564 21.7532 46.0016 21.9984C46.2468 22.2436 46.3846 22.5763 46.3846 22.9231V24.2308H17.6154V22.9231C17.6154 22.5763 17.7532 22.2436 17.9984 21.9984C18.2436 21.7532 18.5763 21.6154 18.9231 21.6154ZM45.0769 42.5385H18.9231C18.5763 42.5385 18.2436 42.4007 17.9984 42.1554C17.7532 41.9102 17.6154 41.5776 17.6154 41.2308V32.0769H25.5923C25.8924 33.555 26.6943 34.8839 27.8621 35.8383C29.0299 36.7928 30.4918 37.3142 32 37.3142C33.5082 37.3142 34.9701 36.7928 36.1379 35.8383C37.3057 34.8839 38.1076 33.555 38.4077 32.0769H46.3846V41.2308C46.3846 41.5776 46.2468 41.9102 46.0016 42.1554C45.7564 42.4007 45.4237 42.5385 45.0769 42.5385Z" fill="black"/>
</svg>
