<svg width="64" height="64" viewBox="0 0 64 64" fill="none" xmlns="http://www.w3.org/2000/svg">
<path d="M32 64C49.6733 64 64 49.6733 64 32C64 14.3267 49.6733 0 32 0C14.3267 0 0 14.3267 0 32C0 49.6733 14.3267 64 32 64Z" fill="#99FA4C"/>
<path d="M49.7362 32.5664C49.7362 35.714 44.0647 38.2664 37.0695 38.2664C33.9662 38.2664 31.1225 37.7644 28.9201 36.93C34.9732 36.5009 39.6029 34.1497 39.6029 31.2997V26.9804C45.3852 27.5092 49.7362 29.8082 49.7362 32.5664ZM39.6029 24.9664C39.6029 21.8187 33.9314 19.2664 26.9362 19.2664C19.941 19.2664 14.2695 21.8187 14.2695 24.9664C14.2695 28.114 19.941 30.6664 26.9362 30.6664C33.9314 30.6664 39.6029 28.114 39.6029 24.9664Z" fill="white"/>
<path d="M40.8667 25.8486V24.9667C40.8667 20.9957 34.8769 18 26.9333 18C18.9898 18 13 20.9957 13 24.9667V31.3C13 34.6076 17.1562 37.2359 23.1333 38.0228V38.9C23.1333 42.871 29.1231 45.8667 37.0667 45.8667C45.0102 45.8667 51 42.871 51 38.9V32.5667C51 29.2892 46.9752 26.6577 40.8667 25.8486ZM48.4667 32.5667C48.4667 34.6598 43.5916 37 37.0667 37C36.4761 37 35.8902 36.9794 35.3123 36.9414C38.7276 35.6969 40.8667 33.675 40.8667 31.3V28.4088C45.5961 29.1134 48.4667 31.0261 48.4667 32.5667ZM23.1333 35.4563V31.6895C24.3933 31.8537 25.6627 31.9351 26.9333 31.9333C28.204 31.9351 29.4734 31.8537 30.7333 31.6895V35.4563C29.4752 35.6421 28.2051 35.7347 26.9333 35.7333C25.6616 35.7347 24.3914 35.6421 23.1333 35.4563ZM38.3333 29.0723V31.3C38.3333 32.6284 36.3684 34.055 33.2667 34.9211V31.2208C35.3107 30.7253 37.0413 29.9874 38.3333 29.0723ZM26.9333 20.5333C33.4582 20.5333 38.3333 22.8735 38.3333 24.9667C38.3333 27.0598 33.4582 29.4 26.9333 29.4C20.4084 29.4 15.5333 27.0598 15.5333 24.9667C15.5333 22.8735 20.4084 20.5333 26.9333 20.5333ZM15.5333 31.3V29.0723C16.8253 29.9874 18.5559 30.7253 20.6 31.2208V34.9211C17.4982 34.055 15.5333 32.6284 15.5333 31.3ZM25.6667 38.9V38.2398C26.0831 38.2556 26.5042 38.2667 26.9333 38.2667C27.5477 38.2667 28.1477 38.2461 28.7367 38.2113C29.3911 38.4455 30.0576 38.6442 30.7333 38.8066V42.5211C27.6316 41.655 25.6667 40.2284 25.6667 38.9ZM33.2667 43.0563V39.28C34.5262 39.4493 35.7958 39.534 37.0667 39.5333C38.3373 39.5351 39.6067 39.4537 40.8667 39.2895V43.0563C38.3468 43.4257 35.7865 43.4257 33.2667 43.0563ZM43.4 42.5211V38.8208C45.4441 38.3253 47.1747 37.5874 48.4667 36.6723V38.9C48.4667 40.2284 46.5017 41.655 43.4 42.5211Z" fill="black"/>
</svg>
