<svg width="64" height="64" viewBox="0 0 64 64" fill="none" xmlns="http://www.w3.org/2000/svg">
<path d="M32 64C49.6733 64 64 49.6733 64 32C64 14.3267 49.6733 0 32 0C14.3267 0 0 14.3267 0 32C0 49.6733 14.3267 64 32 64Z" fill="#99FA4C"/>
<path d="M46.7193 25.6801V43.6001C46.7193 43.9396 46.5844 44.2651 46.3444 44.5052C46.1043 44.7452 45.7788 44.8801 45.4393 44.8801H19.8393C19.1603 44.8801 18.5092 44.6104 18.0291 44.1303C17.549 43.6502 17.2793 42.999 17.2793 42.3201V21.8401C17.2793 22.519 17.549 23.1702 18.0291 23.6503C18.5092 24.1304 19.1603 24.4001 19.8393 24.4001H45.4393C45.7788 24.4001 46.1043 24.5349 46.3444 24.775C46.5844 25.015 46.7193 25.3406 46.7193 25.6801Z" fill="white"/>
<path d="M45.44 23.12H19.84C19.5005 23.12 19.175 22.9851 18.9349 22.7451C18.6949 22.505 18.56 22.1795 18.56 21.84C18.56 21.5005 18.6949 21.175 18.9349 20.9349C19.175 20.6949 19.5005 20.56 19.84 20.56H41.6C41.9395 20.56 42.2651 20.4251 42.5051 20.1851C42.7451 19.945 42.88 19.6195 42.88 19.28C42.88 18.9405 42.7451 18.615 42.5051 18.3749C42.2651 18.1349 41.9395 18 41.6 18H19.84C18.8216 18 17.8448 18.4046 17.1247 19.1247C16.4046 19.8448 16 20.8216 16 21.84V42.32C16 43.3384 16.4046 44.3152 17.1247 45.0353C17.8448 45.7554 18.8216 46.16 19.84 46.16H45.44C46.119 46.16 46.7701 45.8903 47.2502 45.4102C47.7303 44.9301 48 44.279 48 43.6V25.68C48 25.001 47.7303 24.3499 47.2502 23.8698C46.7701 23.3897 46.119 23.12 45.44 23.12ZM45.44 43.6H19.84C19.5005 43.6 19.175 43.4651 18.9349 43.2251C18.6949 42.9851 18.56 42.6595 18.56 42.32V25.4608C18.971 25.6065 19.4039 25.6806 19.84 25.68H45.44V43.6ZM37.76 34C37.76 33.6203 37.8726 33.249 38.0836 32.9333C38.2946 32.6176 38.5944 32.3715 38.9452 32.2262C39.2961 32.0808 39.6821 32.0428 40.0546 32.1169C40.427 32.191 40.7691 32.3738 41.0376 32.6424C41.3062 32.9109 41.489 33.253 41.5631 33.6254C41.6372 33.9979 41.5992 34.3839 41.4538 34.7348C41.3085 35.0856 41.0624 35.3854 40.7467 35.5964C40.431 35.8074 40.0597 35.92 39.68 35.92C39.1708 35.92 38.6824 35.7177 38.3224 35.3576C37.9623 34.9976 37.76 34.5092 37.76 34Z" fill="black"/>
</svg>
