<svg width="24" height="24" viewBox="0 0 24 24" fill="none" xmlns="http://www.w3.org/2000/svg">
<path d="M0 12C0 18.6274 5.37258 24 12 24C18.6274 24 24 18.6274 24 12C24 5.37258 18.6274 0 12 0C5.37258 0 0 5.37258 0 12Z" fill="#131315"/>
<path d="M11.9984 6.90039C13.6484 6.90039 13.8734 6.90039 14.5484 6.90039C15.1484 6.90039 15.4484 7.05039 15.6734 7.12539C15.9734 7.27539 16.1984 7.35039 16.4234 7.57539C16.6484 7.80039 16.7984 8.02539 16.8734 8.32539C16.9484 8.55039 17.0234 8.85039 17.0984 9.45039C17.0984 10.1254 17.0984 10.2754 17.0984 12.0004C17.0984 13.7254 17.0984 13.8754 17.0984 14.5504C17.0984 15.1504 16.9484 15.4504 16.8734 15.6754C16.7234 15.9754 16.6484 16.2004 16.4234 16.4254C16.1984 16.6504 15.9734 16.8004 15.6734 16.8754C15.4484 16.9504 15.1484 17.0254 14.5484 17.1004C13.8734 17.1004 13.7234 17.1004 11.9984 17.1004C10.2734 17.1004 10.1234 17.1004 9.44844 17.1004C8.84844 17.1004 8.54844 16.9504 8.32344 16.8754C8.02344 16.7254 7.79844 16.6504 7.57344 16.4254C7.34844 16.2004 7.19844 15.9754 7.12344 15.6754C7.04844 15.4504 6.97344 15.1504 6.89844 14.5504C6.89844 13.8754 6.89844 13.7254 6.89844 12.0004C6.89844 10.2754 6.89844 10.1254 6.89844 9.45039C6.89844 8.85039 7.04844 8.55039 7.12344 8.32539C7.27344 8.02539 7.34844 7.80039 7.57344 7.57539C7.79844 7.35039 8.02344 7.20039 8.32344 7.12539C8.54844 7.05039 8.84844 6.97539 9.44844 6.90039C10.1234 6.90039 10.3484 6.90039 11.9984 6.90039ZM11.9984 5.77539C10.2734 5.77539 10.1234 5.77539 9.44844 5.77539C8.77344 5.77539 8.32344 5.92539 7.94844 6.07539C7.57344 6.22539 7.19844 6.45039 6.82344 6.82539C6.44844 7.20039 6.29844 7.50039 6.07344 7.95039C5.92344 8.32539 5.84844 8.77539 5.77344 9.45039C5.77344 10.1254 5.77344 10.3504 5.77344 12.0004C5.77344 13.7254 5.77344 13.8754 5.77344 14.5504C5.77344 15.2254 5.92344 15.6754 6.07344 16.0504C6.22344 16.4254 6.44844 16.8004 6.82344 17.1754C7.19844 17.5504 7.49844 17.7004 7.94844 17.9254C8.32344 18.0754 8.77344 18.1504 9.44844 18.2254C10.1234 18.2254 10.3484 18.2254 11.9984 18.2254C13.6484 18.2254 13.8734 18.2254 14.5484 18.2254C15.2234 18.2254 15.6734 18.0754 16.0484 17.9254C16.4234 17.7754 16.7984 17.5504 17.1734 17.1754C17.5484 16.8004 17.6984 16.5004 17.9234 16.0504C18.0734 15.6754 18.1484 15.2254 18.2234 14.5504C18.2234 13.8754 18.2234 13.6504 18.2234 12.0004C18.2234 10.3504 18.2234 10.1254 18.2234 9.45039C18.2234 8.77539 18.0734 8.32539 17.9234 7.95039C17.7734 7.57539 17.5484 7.20039 17.1734 6.82539C16.7984 6.45039 16.4984 6.30039 16.0484 6.07539C15.6734 5.92539 15.2234 5.85039 14.5484 5.77539C13.8734 5.77539 13.7234 5.77539 11.9984 5.77539Z" fill="white"/>
<path d="M11.9984 8.77539C10.1984 8.77539 8.77344 10.2004 8.77344 12.0004C8.77344 13.8004 10.1984 15.2254 11.9984 15.2254C13.7984 15.2254 15.2234 13.8004 15.2234 12.0004C15.2234 10.2004 13.7984 8.77539 11.9984 8.77539ZM11.9984 14.1004C10.8734 14.1004 9.89844 13.2004 9.89844 12.0004C9.89844 10.8754 10.7984 9.90039 11.9984 9.90039C13.1234 9.90039 14.0984 10.8004 14.0984 12.0004C14.0984 13.1254 13.1234 14.1004 11.9984 14.1004Z" fill="white"/>
<path d="M15.2984 9.45039C15.7127 9.45039 16.0484 9.1146 16.0484 8.70039C16.0484 8.28618 15.7127 7.95039 15.2984 7.95039C14.8842 7.95039 14.5484 8.28618 14.5484 8.70039C14.5484 9.1146 14.8842 9.45039 15.2984 9.45039Z" fill="white"/>
</svg>
