<svg width="164" height="42" viewBox="0 0 164 42" fill="none" xmlns="http://www.w3.org/2000/svg">
<path d="M30.71 17.7192C33.848 17.7192 34.554 19.0822 34.554 20.7822C34.554 22.5842 33.7 23.8752 30.723 23.8752C27.765 23.8752 26.91 22.6592 26.91 20.7822C26.91 18.9352 27.842 17.7192 30.71 17.7192Z" fill="#99FA4C"/>
<path d="M63.504 17.7192C66.642 17.7192 67.348 19.0822 67.348 20.7822C67.348 22.5842 66.493 23.8752 63.517 23.8752C60.56 23.8752 59.704 22.6592 59.704 20.7822C59.704 18.9352 60.636 17.7192 63.504 17.7192Z" fill="#99FA4C"/>
<path fill-rule="evenodd" clip-rule="evenodd" d="M2.92676 38.4999V3.04688H161.505V38.4999H2.92676ZM78.5048 36.4999H159.505V5.04688H78.5048V36.4999ZM30.725 26.8929C36.296 26.8929 38.638 24.4899 38.638 20.7369C38.638 16.9229 36 14.6559 30.725 14.6559C25.531 14.6559 22.797 17.1179 22.797 20.7369C22.797 24.8209 25.665 26.8929 30.725 26.8929ZM11.356 14.9259V26.7129H22.6V23.5739H15.424V14.9259H11.356ZM51.222 26.7129L51.117 25.5709C49.7561 26.5421 48.0997 27.0095 46.432 26.8929C43.925 26.8929 41.837 26.1419 40.666 24.6259C39.8936 23.5191 39.5036 22.1905 39.555 20.8419C39.5111 19.5216 39.9146 18.2252 40.7 17.1629C41.885 15.6919 44.033 14.7159 47.231 14.7159C50.91 14.7159 53.072 15.8419 54.002 17.7339C54.2016 18.1795 54.3189 18.6575 54.348 19.1449H50.456C50.3579 18.8487 50.1754 18.5877 49.931 18.3939C49.1557 17.8799 48.2299 17.6422 47.303 17.7189C46.7593 17.653 46.2077 17.7032 45.6849 17.8663C45.1621 18.0294 44.6798 18.3016 44.27 18.6649C43.8046 19.3019 43.5861 20.0861 43.655 20.8719C43.601 21.6216 43.8019 22.3676 44.225 22.9889C44.6385 23.3742 45.1301 23.666 45.6663 23.8448C46.2026 24.0235 46.7709 24.085 47.333 24.0249C48.4493 24.1157 49.5576 23.7714 50.426 23.0639C50.6125 22.8307 50.7411 22.5565 50.801 22.2639H46.613V19.7309H54.45V26.7129H51.222ZM63.519 26.8929C69.089 26.8929 71.432 24.4899 71.432 20.7369C71.432 16.9229 68.7899 14.6559 63.519 14.6559C58.325 14.6559 55.591 17.1179 55.591 20.7369C55.591 24.8209 58.459 26.8929 63.519 26.8929Z" fill="#99FA4C"/>
<path d="M85.3571 26.6679V14.8809H88.2571V26.6679H85.3571Z" fill="#99FA4C"/>
<path d="M103.149 21.7431C102.414 22.7041 101.149 23.1431 99.366 23.1541C98.99 23.1541 94.005 23.1391 94.005 23.1391V26.6681H91.167V14.8811H99.367C100.024 14.8116 100.689 14.8813 101.317 15.0856C101.946 15.29 102.524 15.6244 103.015 16.0671C103.663 16.9113 103.978 17.9639 103.901 19.0251C103.967 19.9903 103.702 20.9492 103.149 21.7431ZM100.822 17.9001C100.522 17.4501 99.875 17.2001 98.78 17.2001H93.99V20.7881H98.749C99.92 20.7881 100.537 20.5481 100.822 20.0821C100.991 19.7538 101.064 19.3841 101.032 19.0161C101.057 18.6323 100.985 18.2484 100.822 17.9001Z" fill="#99FA4C"/>
<path d="M112.264 26.8482C106.918 26.8482 105.282 24.8482 105.282 22.8692H108.315C108.315 23.8452 109.651 24.5812 112.399 24.5812C115.131 24.5812 115.852 24.1002 115.852 23.3192C115.852 22.4482 115.312 22.1782 112.774 21.8932C112.274 21.8482 110.913 21.6832 110.402 21.6082C106.802 21.2022 105.416 20.1362 105.416 18.2292C105.416 16.2172 107.444 14.7012 111.843 14.7012C116.618 14.7012 118.45 16.5782 118.45 18.5302H115.45C115.45 17.5392 114.324 16.9682 111.666 16.9682C108.933 16.9682 108.348 17.3432 108.348 18.0792C108.348 18.8452 108.948 19.0852 111.848 19.4302C112.509 19.5212 113.98 19.6862 114.385 19.7302C117.449 20.0452 118.83 21.1562 118.83 23.1232C118.825 25.4662 116.723 26.8482 112.264 26.8482Z" fill="#99FA4C"/>
<path d="M127.37 26.8329C123.452 26.8329 120.899 25.2859 120.899 22.0329V14.8809H123.766V22.0729C123.766 23.5599 124.983 24.5499 127.49 24.5499C129.757 24.5499 131.109 23.6199 131.109 22.0729V14.8809H133.947V22.2999C133.947 25.2569 131.574 26.8329 127.37 26.8329Z" fill="#99FA4C"/>
<path d="M149.487 26.6679V18.7999L145.808 26.6679H143.016L139.442 18.7999V26.6679H136.742V14.8809H140.4L144.454 23.8599L148.598 14.8809H152.198V26.6679H149.487Z" fill="#99FA4C"/>
</svg>
