<svg width="101" height="40" viewBox="0 0 101 40" fill="none" xmlns="http://www.w3.org/2000/svg">
<g clip-path="url(#clip0_48_2460)">
<path d="M5.27008 4.235C5.53008 3.001 6.76008 2 8.01308 2H14.8251L9.16008 28.823H2.34808C1.09408 28.823 0.28808 27.823 0.54908 26.588L5.27008 4.235ZM27.9771 4.235C28.2381 3.001 29.4671 2 30.7201 2H37.5321L31.8671 28.823H25.0551C23.8011 28.823 22.9951 27.823 23.2561 26.588L27.9771 4.235ZM73.3921 4.235C73.6521 3.001 74.8801 2 76.1351 2H82.9471L77.2821 28.823H70.4691C69.2151 28.823 68.4101 27.823 68.6711 26.588L73.3921 4.235ZM39.8031 2H46.6151C47.8691 2 48.6751 3 48.4141 4.235L43.6931 26.588C43.4331 27.823 42.2041 28.823 40.9501 28.823H34.1381L39.8031 2ZM85.2181 2H92.0301C93.2841 2 94.0901 3 93.8291 4.235L89.1071 26.588C88.8471 27.823 87.6191 28.823 86.3651 28.823H79.5521L85.2181 2ZM50.6851 4.235C50.9451 3.001 52.1731 2 53.4271 2H60.2401L54.5741 28.823H47.7621C46.5081 28.823 45.7021 27.823 45.9641 26.588L50.6841 4.235H50.6851ZM62.5101 2H69.3231C70.5771 2 71.3821 3 71.1211 4.235L64.0401 37.765C63.7781 38.999 62.5501 40 61.2961 40H54.4831L62.5101 2ZM13.3191 19.882H22.4021L20.9861 26.588C20.7251 27.823 19.4961 28.823 18.2431 28.823H11.4301L13.3181 19.883L13.3191 19.882ZM45.0201 31.059H54.1021L52.2141 40H45.4021C44.1471 40 43.3421 39 43.6031 37.765L45.0201 31.059ZM69.6741 33.138L68.5241 38.584C68.4741 38.818 68.3961 38.882 68.1581 38.882H67.6351C67.3971 38.882 67.3451 38.818 67.3951 38.584L68.5451 33.138C68.5951 32.905 68.6731 32.84 68.9111 32.84H69.4341C69.6721 32.84 69.7241 32.905 69.6741 33.138ZM71.1861 36.812H71.0791C70.9651 36.812 70.9251 36.844 70.9021 36.957L70.5581 38.584C70.5081 38.818 70.4291 38.882 70.1921 38.882H69.6681C69.4311 38.882 69.3791 38.818 69.4281 38.584L70.5781 33.138C70.6281 32.905 70.7081 32.84 70.9451 32.84H72.0251C73.2691 32.84 73.7401 33.283 73.5101 34.37L73.3181 35.281C73.0881 36.369 72.4301 36.812 71.1861 36.812ZM71.5021 34.113L71.2021 35.539C71.1771 35.652 71.2031 35.684 71.3181 35.684H71.4901C71.8901 35.684 72.1051 35.523 72.1921 35.112L72.3121 34.54C72.3991 34.13 72.2531 33.968 71.8521 33.968H71.6801C71.5661 33.968 71.5261 34 71.5021 34.113ZM75.2401 34.991L76.0901 35.926C76.5361 36.409 76.5981 36.699 76.4841 37.239L76.4541 37.384C76.2391 38.399 75.7271 38.963 74.5401 38.963C73.3541 38.963 73.0611 38.488 73.3351 37.19L73.3691 37.03C73.4191 36.796 73.4981 36.731 73.7351 36.731H74.2911C74.5291 36.731 74.5811 36.796 74.5311 37.029L74.4561 37.384C74.3881 37.706 74.4921 37.835 74.7781 37.835C75.0651 37.835 75.2211 37.715 75.2831 37.425L75.3151 37.271C75.3631 37.045 75.3371 36.933 75.0911 36.667L74.2911 35.805C73.8431 35.33 73.7861 35.055 73.9001 34.515L73.9371 34.339C74.1521 33.324 74.6641 32.759 75.8501 32.759C77.0371 32.759 77.3301 33.235 77.0561 34.532L77.0221 34.693C76.9721 34.927 76.8931 34.991 76.6561 34.991H76.0991C75.8621 34.991 75.8101 34.927 75.8591 34.693L75.9341 34.339C76.0021 34.016 75.8991 33.888 75.6121 33.888C75.3261 33.888 75.1691 34.008 75.1081 34.298L75.0791 34.435C75.0291 34.669 75.0551 34.782 75.2401 34.991ZM80.0321 33.138C80.0821 32.905 80.1601 32.84 80.3981 32.84H80.9211C81.1591 32.84 81.2111 32.905 81.1611 33.138L80.3051 37.191C80.0311 38.488 79.5381 38.963 78.3511 38.963C77.1651 38.963 76.8721 38.488 77.1461 37.19L78.0021 33.138C78.0521 32.905 78.1311 32.84 78.3681 32.84H78.8921C79.1291 32.84 79.1811 32.905 79.1321 33.138L78.2351 37.384C78.1671 37.706 78.2791 37.835 78.5901 37.835C78.8921 37.835 79.0671 37.706 79.1351 37.384L80.0321 33.138ZM83.4381 36.417C83.4411 36.482 83.4621 36.497 83.5031 36.497C83.5431 36.497 83.5721 36.482 83.6021 36.417L85.0161 33.05C85.0851 32.88 85.1671 32.84 85.3721 32.84H86.1661C86.4031 32.84 86.4551 32.905 86.4061 33.138L85.2561 38.584C85.2061 38.818 85.1261 38.882 84.8891 38.882H84.5131C84.2761 38.882 84.2231 38.818 84.2731 38.584L84.8251 35.974C84.8401 35.902 84.8271 35.885 84.7781 35.885C84.7451 35.885 84.7081 35.902 84.6881 35.958L83.5461 38.617C83.4641 38.81 83.3591 38.882 83.1221 38.882H82.9001C82.6541 38.882 82.5801 38.81 82.5801 38.617L82.5521 35.957C82.5471 35.901 82.5341 35.885 82.4931 35.885C82.4441 35.885 82.4241 35.902 82.4091 35.974L81.8581 38.584C81.8081 38.818 81.7301 38.882 81.4921 38.882H81.1161C80.8781 38.882 80.8261 38.818 80.8761 38.584L82.0261 33.138C82.0761 32.905 82.1551 32.84 82.3921 32.84H83.0721C83.3581 32.84 83.4501 32.905 83.4481 33.187L83.4371 36.417H83.4381ZM100.5 2C100.5 3.105 99.6101 4 98.5131 4C98.2513 3.99921 97.9922 3.94685 97.7506 3.8459C97.509 3.74495 97.2897 3.5974 97.1052 3.41167C96.9207 3.22594 96.7746 3.00567 96.6752 2.76345C96.5758 2.52123 96.5252 2.26181 96.5261 2C96.5261 0.895 97.4161 0 98.5131 0C99.6101 0 100.5 0.895 100.5 2Z" fill="#99FA4C"/>
</g>
<defs>
<clipPath id="clip0_48_2460">
<rect width="100" height="40" fill="white" transform="translate(0.5)"/>
</clipPath>
</defs>
</svg>
