<svg width="176" height="40" viewBox="0 0 176 40" fill="none" xmlns="http://www.w3.org/2000/svg">
<g clip-path="url(#clip0_48_2432)">
<path d="M170.894 7.66415L175.068 11.8668C175.214 11.9829 175.322 12.1396 175.378 12.3171C175.463 13.3515 174.68 13.4081 173.88 13.4659C173.534 13.4909 173.185 13.5162 172.902 13.621C171.498 14.0009 170.246 14.8033 169.315 15.9193C168.383 17.0353 167.818 18.4109 167.695 19.8593C167.605 20.0266 167.469 20.1643 167.302 20.2558C167.136 20.3474 166.947 20.3888 166.757 20.3753C166.537 20.3558 166.331 20.2595 166.175 20.1032L164.805 18.7238C164.815 18.8182 164.815 18.9117 164.815 18.9869V19.8968C164.815 19.9543 164.817 20.0097 164.81 20.065C164.801 20.127 164.78 20.1888 164.731 20.2532V20.3377C164.731 20.3808 164.736 20.4209 164.741 20.4616C164.751 20.5449 164.762 20.6307 164.731 20.7505C164.701 20.8622 164.698 20.9925 164.694 21.1088C164.693 21.1779 164.691 21.2421 164.684 21.2945C164.674 21.3672 164.674 21.4448 164.668 21.5223C164.662 21.5949 164.65 21.6674 164.618 21.7354C164.574 21.8306 164.559 21.9215 164.555 22.0139C164.552 22.0581 164.552 22.1026 164.552 22.1482L164.496 22.439L162.367 32.5891L162.198 33.3489L162.132 34.4559L161.194 39.2495L161.044 40H85.1248L84.7589 39.6341L84.6932 39.9531H76.5694L72.0478 35.4034L72.4793 33.3489H69.9277L68.3424 31.7448C66.3749 33.1775 63.9934 33.9285 61.56 33.8837C58.9442 33.9866 56.3941 33.0488 54.4681 31.2758L52.0009 28.7899L51.4662 31.2851C51.4006 31.6416 51.3161 31.9794 51.2223 32.3077L51.1379 32.6173L50.9972 33.0675C50.9856 33.1066 50.9699 33.1444 50.9503 33.1801C50.8106 33.5937 50.6446 33.9979 50.4531 34.3902C50.4581 34.4054 50.4581 34.4219 50.4531 34.4371C50.4285 34.4891 50.4003 34.5392 50.3686 34.5872C50.227 34.8675 50.0705 35.1399 49.8996 35.4034C49.8679 35.4513 49.8397 35.5015 49.8152 35.5535L49.712 35.666C49.4827 35.9949 49.232 36.3082 48.9615 36.6041C48.8873 36.6783 48.8131 36.748 48.7377 36.8164C48.6607 36.8864 48.5825 36.9551 48.5018 37.0262L48.2955 37.2232C48.1654 37.3313 48.0323 37.4356 47.8964 37.5361C47.7843 37.619 47.6703 37.6992 47.5544 37.7767C45.6211 38.9222 43.391 39.4674 41.1473 39.3433C38.0516 39.3433 35.575 38.4427 34.0084 36.8668L29.5994 32.4296C27.8383 33.4262 25.8442 33.9377 23.8208 33.9118C21.2129 33.9925 18.6782 33.042 16.7664 31.2664L14.2993 28.7805L13.5019 32.6173L13.3424 33.3771H5.04036L0.5 28.7992L0.734521 27.6923L5.72515 3.72418L5.87521 2.97372H14.2054L14.4212 3.18013V2.97372H70.5469L70.7533 3.18013V2.97372H78.8771L83.4174 7.55158L83.1923 8.64913L82.9484 9.8499H85.2842L85.6501 10.2158C86.6779 9.61344 87.8453 9.29005 89.0366 9.27769C89.9126 9.26039 90.7825 9.42678 91.5903 9.76608C92.3982 10.1054 93.126 10.61 93.727 11.2476L93.605 11.1069L95.8095 13.3302C97.151 10.8068 100.162 9.27769 104.252 9.27769C107.423 9.27769 109.759 10.0844 111.175 11.5478L112.77 13.152L113.305 10.5722L113.464 9.82173H121.597L123.924 12.1576L124.252 10.5816L124.412 9.83112H140.416L140.847 10.2627C141.931 9.62306 143.172 9.29818 144.431 9.32458C145.188 9.29503 145.942 9.43365 146.64 9.73047C147.337 10.0273 147.96 10.475 148.464 11.0413C148.438 11.0118 148.413 10.9823 148.388 10.9533C148.343 10.8995 148.298 10.847 148.25 10.7984L149.065 11.6135C149.775 10.8782 150.629 10.2959 151.572 9.90235C152.516 9.50877 153.53 9.3121 154.552 9.32458C155.095 9.2912 155.637 9.3374 156.163 9.46033L155.275 8.56473C155.154 8.43528 155.072 8.27421 155.039 8.10021C155.006 7.92621 155.023 7.74631 155.087 7.58147C155.152 7.41657 155.262 7.27343 155.405 7.16854C155.548 7.06365 155.717 7.00129 155.894 6.98875H156.607C156.799 6.97043 156.99 6.94226 157.179 6.9043C158.176 6.69474 159.114 6.26624 159.925 5.6497C160.737 5.03323 161.401 4.24418 161.87 3.33959C161.911 3.26962 161.948 3.19765 161.982 3.12384V3.07695C162.305 2.38215 162.501 1.63581 162.564 0.872416C162.58 0.635203 162.687 0.413106 162.861 0.251186C163.035 0.0892079 163.264 -0.00056984 163.502 2.72188e-06H163.577C163.719 0.0135152 163.857 0.0594347 163.979 0.134211C164.101 0.209045 164.204 0.310732 164.281 0.431543C164.956 1.08821 168.708 4.90617 168.708 4.90617C169.021 5.24238 168.998 5.67885 168.974 6.12046C168.959 6.39352 168.944 6.66858 169.008 6.92308C169.179 6.95371 169.352 6.9769 169.524 6.99259C169.69 7.00753 169.856 7.01566 170.022 7.01687C170.216 7.02093 170.405 7.0854 170.561 7.2014C170.717 7.31735 170.834 7.4791 170.894 7.66415Z" fill="#99FA4C"/>
<path d="M43.4361 10.7507H49.3648L46.044 26.5011C45.4343 29.4842 44.271 31.1916 42.5074 32.4017C40.7236 33.4368 38.6753 33.926 36.6163 33.8088C32.6951 33.8088 28.9333 32.1672 28.5581 28.1803H34.5243C34.7119 29.1184 35.575 29.6531 36.8883 29.6531C38.6613 29.6531 39.4774 28.5837 39.8433 26.9045L40.1997 25.169H40.0684C39.5449 25.7445 38.9099 26.2075 38.202 26.53C37.494 26.8525 36.728 27.0278 35.9502 27.0452C32.4981 27.0452 29.7588 24.2966 29.8151 20.2722C29.8902 15.5818 32.9483 10.2535 38.0797 10.2535C39.0521 10.188 40.0229 10.4023 40.8774 10.8711C41.7319 11.3398 42.4342 12.0435 42.9014 12.8989H43.0046L43.4361 10.7507ZM38.3423 22.6456C40.6219 22.6456 41.8883 20.019 41.9258 17.7582C41.9258 16.2479 41.3348 14.7 39.59 14.7C37.2072 14.7 35.9971 17.3548 35.9596 19.6343C35.9596 21.1728 36.5506 22.6456 38.2954 22.6456M104.9 23.1522C104.9 24.1559 104.036 24.5593 102.901 24.5593C101.025 24.5593 100.397 23.6212 100.387 22.3079H94.4868C94.3836 27.2047 98.7551 28.4148 102.639 28.4148C107.601 28.4148 110.819 26.2666 110.885 21.9796C110.885 18.5555 107.967 17.5143 105.097 16.8482C102.892 16.3417 101.926 15.9758 101.935 15.1409C101.945 14.306 102.93 13.9683 103.896 13.9683C105.106 13.9683 105.931 14.3998 106.016 15.5068H111.748C111.682 11.4167 107.995 10.216 104.243 10.216C99.6838 10.216 96.1284 12.2891 96.0721 16.2103C96.0721 19.2966 98.1547 20.4317 101.297 21.2385C103.314 21.7732 104.918 21.942 104.9 23.1522ZM148.736 13.2929H148.633C148.378 12.3691 147.814 11.5604 147.036 11.0007C146.258 10.4411 145.312 10.1642 144.355 10.216C141.804 10.216 140.247 11.4824 138.774 13.3961H138.671L139.215 10.7507H133.248L129.674 27.8426H135.913L137.789 18.6212C138.22 16.6137 139.243 15.2066 140.791 15.2066C142.339 15.2066 142.545 16.4448 142.226 17.9552L140.162 27.8426H146.4L148.277 18.6212C148.708 16.4824 149.731 15.2066 151.278 15.2066C152.826 15.2066 153.033 16.3792 152.714 17.9552L150.65 27.8426H156.888L159.121 17.6831C160.059 13.3961 158.624 10.1784 154.506 10.1784C153.36 10.1737 152.232 10.4563 151.224 11.0004C150.216 11.5445 149.361 12.3327 148.736 13.2929ZM1.64441 27.8426H8.08906L13.0703 3.87451H6.63503L1.64441 27.8426ZM21.044 10.2441C25.3967 10.2441 29.5525 12.6268 29.4868 18.0208C29.4305 23.9214 25.4155 28.3398 19.2804 28.3398C15.059 28.3398 10.8377 25.9946 10.9127 20.6287C11.0159 14.8689 14.9746 10.2441 21.044 10.2441ZM19.4587 24.1559C22.2073 24.1559 23.211 20.169 23.211 17.8238C23.211 16.1447 22.6951 14.503 20.8845 14.503C18.1641 14.503 17.2354 18.7244 17.2354 20.9008C17.2354 22.6456 17.7232 24.1559 19.4962 24.1559M15.2185 3.87451L14.2804 8.66813H68.3986L69.3367 3.87451H15.2185ZM58.7457 10.2441C63.0984 10.2441 67.2541 12.6268 67.1885 18.0208C67.1322 23.9214 63.1078 28.3398 56.9727 28.3398C52.7513 28.3398 48.5299 25.9946 48.6144 20.6287C48.7457 14.8689 52.7044 10.2441 58.7457 10.2441ZM57.1885 24.1559C59.9371 24.1559 60.9408 20.169 60.9408 17.8238C60.9408 16.1447 60.4155 14.503 58.605 14.503C55.8939 14.503 54.9558 18.7244 54.9558 20.9008C54.9558 22.6456 55.4436 24.1559 57.226 24.1559M71.5506 3.87451L70.6125 8.66813H76.8414L77.7795 3.87451H71.5506ZM66.56 27.8426H72.7982L76.3723 10.7507H70.0965L66.56 27.8426ZM86.4661 28.4148C85.4733 28.4853 84.4804 28.2778 83.5988 27.8155C82.7173 27.3532 81.982 26.6544 81.4755 25.7976H81.3723L79.4962 34.4467H73.1828L78.2485 10.7507H84.1772L83.7082 13.0302C84.3273 12.1882 85.1293 11.4975 86.0538 11.01C86.9783 10.5226 88.0013 10.2511 89.0459 10.216C92.7982 10.216 95.0027 13.4336 94.9371 17.6175C94.8526 22.8801 92.1228 28.4148 86.4286 28.4148H86.4661ZM86.2222 15.0565C83.8114 15.0565 82.3292 18.1428 82.2917 20.5162C82.2917 22.1672 82.8733 24.0058 84.8526 24.0058C87.4324 24.0058 88.4924 20.5912 88.5205 18.3116C88.5205 16.7638 88.0703 15.0565 86.2222 15.0565ZM122.292 25.1503H122.395L121.851 27.8614H127.779L131.354 10.7694H125.125L123.136 20.3191C122.733 22.2985 121.513 23.3398 119.975 23.3398C118.436 23.3398 118.098 21.8951 118.408 20.3848L120.425 10.7694H114.196L111.991 21.3229C111.053 25.9195 113.192 28.3961 116.776 28.3961C117.901 28.3851 119.004 28.0776 119.972 27.5044C120.94 26.9312 121.741 26.1127 122.292 25.1315V25.1503ZM155.753 34.5312L156.691 29.7375H82.7138L81.7757 34.5312H155.753Z" fill="white"/>
<path d="M162.46 15.4409C162.399 15.4362 162.339 15.4193 162.284 15.3912C162.228 15.3632 162.179 15.3245 162.139 15.2774C162.099 15.2303 162.069 15.1758 162.05 15.1169C162.031 15.058 162.024 14.996 162.029 14.9343C162.107 14.0989 162.008 13.2563 161.738 12.4619C161.468 11.6675 161.033 10.939 160.461 10.3244C159.89 9.70973 159.195 9.22271 158.423 8.89521C157.65 8.56772 156.817 8.40714 155.978 8.424C155.854 8.424 155.735 8.37459 155.647 8.28662C155.559 8.19866 155.509 8.07935 155.509 7.95495C155.509 7.83055 155.559 7.71126 155.647 7.6233C155.735 7.53533 155.854 7.48591 155.978 7.48591C156.203 7.50045 156.429 7.50045 156.654 7.48591C158.32 7.3084 159.872 6.55561 161.043 5.35708C162.215 4.15855 162.931 2.58925 163.07 0.919306C163.08 0.801523 163.133 0.691657 163.22 0.611654C163.307 0.531652 163.421 0.487416 163.539 0.487795C163.601 0.49253 163.661 0.509418 163.716 0.537479C163.771 0.56554 163.82 0.604223 163.86 0.651304C163.901 0.698386 163.931 0.752932 163.95 0.811808C163.969 0.870684 163.976 0.93272 163.971 0.994355C163.893 1.82902 163.992 2.67077 164.261 3.46455C164.531 4.25832 164.965 4.98625 165.535 5.60075C166.106 6.21524 166.799 6.70246 167.57 7.03055C168.342 7.35864 169.174 7.5202 170.012 7.50467C170.136 7.50467 170.256 7.5541 170.344 7.64206C170.432 7.73002 170.481 7.84932 170.481 7.97372C170.481 8.09812 170.432 8.21743 170.344 8.30539C170.256 8.39335 170.136 8.44276 170.012 8.44276C168.23 8.4722 166.521 9.15874 165.214 10.3707C163.907 11.5826 163.093 13.2345 162.93 15.0094C162.92 15.1272 162.867 15.2371 162.78 15.3171C162.693 15.3971 162.579 15.4413 162.46 15.4409Z" fill="white"/>
</g>
<defs>
<clipPath id="clip0_48_2432">
<rect width="175" height="40" fill="white" transform="translate(0.5)"/>
</clipPath>
</defs>
</svg>
