<svg width="24" height="24" viewBox="0 0 24 24" fill="none" xmlns="http://www.w3.org/2000/svg">
<path d="M0 12C0 18.6274 5.37258 24 12 24C18.6274 24 24 18.6274 24 12C24 5.37258 18.6274 0 12 0C5.37258 0 0 5.37258 0 12Z" fill="#131315"/>
<path d="M17.7 9.07578C17.55 8.55078 17.175 8.17578 16.65 8.02578C15.75 7.80078 11.925 7.80078 11.925 7.80078C11.925 7.80078 8.175 7.80078 7.2 8.02578C6.675 8.17578 6.3 8.55078 6.15 9.07578C6 10.0508 6 12.0008 6 12.0008C6 12.0008 6 13.9508 6.225 14.9258C6.375 15.4508 6.75 15.8258 7.275 15.9758C8.175 16.2008 12 16.2008 12 16.2008C12 16.2008 15.75 16.2008 16.725 15.9758C17.25 15.8258 17.625 15.4508 17.775 14.9258C18 13.9508 18 12.0008 18 12.0008C18 12.0008 18 10.0508 17.7 9.07578ZM10.8 13.8008V10.2008L13.95 12.0008L10.8 13.8008Z" fill="white"/>
</svg>
